<svg width="580" height="580" viewBox="0 0 580 580" fill="none" xmlns="http://www.w3.org/2000/svg">
<rect width="580" height="580" fill="white"/>
<path d="M491.515 186.157C491.515 186.157 471.946 107.671 353.475 58.174C235.004 8.6768 129.015 54.52 104.852 112.52C80.6896 170.52 106.012 201.84 89.8884 251.372C73.7644 300.904 -9.0712 363.637 24.36 439.71C57.7912 515.782 214.229 537.509 340.82 521.814C467.41 506.12 566.312 332.247 491.515 186.157Z" fill="#8F00FF"/>
<path opacity="0.7" d="M491.515 186.157C491.515 186.157 471.946 107.671 353.475 58.174C235.004 8.6768 129.015 54.52 104.852 112.52C80.6896 170.52 106.012 201.84 89.8884 251.372C73.7644 300.904 -9.0712 363.637 24.36 439.71C57.7912 515.782 214.229 537.509 340.82 521.814C467.41 506.12 566.312 332.247 491.515 186.157Z" fill="white"/>
<path d="M183.28 123.633H87C83.9235 123.633 80.973 124.855 78.7976 127.03C76.6221 129.206 75.4 132.156 75.4 135.233V171.193C75.4 174.269 76.6221 177.22 78.7976 179.395C80.973 181.571 83.9235 182.793 87 182.793H182.7L194.88 199.033V135.233C194.88 132.156 193.658 129.206 191.482 127.03C189.307 124.855 186.357 123.633 183.28 123.633Z" fill="#263238"/>
<path d="M96.3612 163.224H92.8812V141.184H96.3612V150.614H100.282V141.184H103.762V163.224H100.282V153.793H96.3612V163.224Z" fill="#8F00FF"/>
<path d="M106.326 141.218H109.806V163.258H106.326V141.218Z" fill="#8F00FF"/>
<path d="M116.162 141.218H126.846V144.362H123.227V163.224H119.747V144.362H116.139L116.162 141.218Z" fill="#8F00FF"/>
<path d="M131.811 163.224H128.331V141.184H131.811V150.614H135.72V141.184H139.2V163.224H135.72V153.793H131.788L131.811 163.224Z" fill="#8F00FF"/>
<path d="M145.232 150.487H149.976V153.63H145.232V160.08H151.206V163.224H141.775V141.184H151.206V144.327H145.232V150.487Z" fill="#8F00FF"/>
<path d="M160.567 163.224C160.284 162.353 160.177 161.434 160.254 160.521V157.041C160.254 154.999 159.57 154.245 157.934 154.245H156.774V163.2H153.294V141.16H158.514C162.098 141.16 163.641 142.831 163.641 146.218V147.946C163.641 150.208 162.91 151.693 161.321 152.412C163.05 153.143 163.641 154.802 163.641 157.052V160.451C163.578 161.358 163.709 162.267 164.024 163.119L160.567 163.224ZM156.797 144.362V151.125H158.154C159.442 151.125 160.231 150.556 160.231 148.805V146.624C160.231 145.058 159.697 144.304 158.468 144.304L156.797 144.362Z" fill="#8F00FF"/>
<path d="M169.441 150.487H174.186V153.63H169.441V160.08H175.404V163.224H165.973V141.184H175.404V144.327H169.441V150.487Z" fill="#8F00FF"/>
<path d="M177.99 158.352L177.55 150.394V141.218H181.03V150.394L180.589 158.352H177.99ZM180.937 159.894V163.224H177.608V159.894H180.937Z" fill="#8F00FF"/>
<path d="M523.16 517.952H547.52" stroke="#263238" stroke-linecap="round" stroke-linejoin="round"/>
<path d="M63.8 517.952H515.04" stroke="#263238" stroke-linecap="round" stroke-linejoin="round"/>
<path d="M32.074 517.952H48.72" stroke="#263238" stroke-linecap="round" stroke-linejoin="round"/>
<path d="M199.149 361.734H181.424V515.782H199.149V361.734Z" fill="#263238" stroke="#263238" stroke-linecap="round" stroke-linejoin="round"/>
<path d="M58.6032 417.519V428.353H129.247V417.519H58.6032Z" fill="#263238" stroke="#263238" stroke-linecap="round" stroke-linejoin="round"/>
<path d="M65.8648 380.12H55.0304V423.47H65.8648V380.12Z" fill="#263238" stroke="#263238" stroke-linecap="round" stroke-linejoin="round"/>
<path d="M70.3772 423.655C70.3772 424.959 70.1203 426.249 69.6211 427.453C69.122 428.657 68.3904 429.751 67.4682 430.672C66.546 431.594 65.4513 432.324 64.2466 432.822C63.042 433.319 61.751 433.575 60.4476 433.573C60.1228 433.573 59.798 433.573 59.4848 433.573C57.6781 433.395 55.9549 432.724 54.5027 431.634C53.0504 430.545 51.9247 429.078 51.2479 427.393C50.5711 425.709 50.3691 423.871 50.664 422.079C50.9588 420.288 51.7392 418.612 52.9202 417.233C54.1012 415.854 55.6376 414.825 57.3624 414.258C59.0873 413.692 60.9345 413.609 62.7031 414.018C64.4718 414.428 66.0943 415.315 67.3941 416.583C68.6939 417.85 69.6214 419.45 70.0756 421.208C70.2737 422.008 70.3749 422.83 70.3772 423.655Z" fill="white" stroke="#263238" stroke-linecap="round" stroke-linejoin="round"/>
<path d="M71.108 386.802C71.1019 389.433 70.0534 391.953 68.1922 393.812C66.331 395.671 63.809 396.717 61.1784 396.72C60.8536 396.72 60.5288 396.72 60.204 396.72C58.3964 396.547 56.6709 395.881 55.2152 394.795C53.7596 393.71 52.6295 392.246 51.9479 390.563C51.2663 388.88 51.0593 387.042 51.3494 385.249C51.6395 383.457 52.4157 381.778 53.5934 380.396C54.7711 379.014 56.3053 377.981 58.0291 377.41C59.7529 376.839 61.6002 376.751 63.3702 377.157C65.1402 377.563 66.765 378.446 68.068 379.711C69.3709 380.976 70.302 382.574 70.76 384.331C70.9828 385.136 71.0998 385.967 71.108 386.802Z" fill="white" stroke="#263238" stroke-linecap="round" stroke-linejoin="round"/>
<path d="M88.8872 359.89L74.4453 367.666L77.4369 373.222L91.8789 365.446L88.8872 359.89Z" fill="#263238" stroke="#263238" stroke-linecap="round" stroke-linejoin="round"/>
<path d="M94.2732 366.05L87.1624 369.878L82.6152 361.444L89.7376 357.605C90.2965 357.298 90.9109 357.107 91.5449 357.042C92.1789 356.976 92.8195 357.038 93.4291 357.224C94.0387 357.41 94.605 357.716 95.0946 358.124C95.5842 358.532 95.9872 359.034 96.28 359.6C96.8621 360.723 96.9778 362.03 96.6021 363.237C96.2264 364.445 95.3895 365.455 94.2732 366.05Z" fill="white" stroke="#263238" stroke-linecap="round" stroke-linejoin="round"/>
<path d="M63.104 330.287L62.5936 359.704L56.2948 359.6L56.7936 330.182L63.104 330.287Z" fill="#263238" stroke="#263238" stroke-linecap="round" stroke-linejoin="round"/>
<path d="M64.8092 328.512L64.6816 336.632L55.1 336.4L55.2276 328.28C55.2382 327.651 55.3726 327.03 55.6232 326.453C55.8738 325.875 56.2356 325.353 56.688 324.916C57.1404 324.479 57.6746 324.135 58.26 323.904C58.8453 323.673 59.4704 323.56 60.0996 323.57C60.7352 323.579 61.3627 323.715 61.9453 323.969C62.5279 324.224 63.0538 324.592 63.4924 325.052C63.931 325.512 64.2734 326.055 64.4995 326.649C64.7256 327.243 64.8309 327.877 64.8092 328.512Z" fill="white" stroke="#263238" stroke-linecap="round" stroke-linejoin="round"/>
<path d="M86.6752 340.959L72.8364 366.92L67.2684 363.962L81.0956 338.001L86.6752 340.959Z" fill="#263238" stroke="#263238" stroke-linecap="round" stroke-linejoin="round"/>
<path d="M88.9952 340.158L85.202 347.292L76.7456 342.803L80.5272 335.658C81.1255 334.539 82.1419 333.703 83.3546 333.331C84.5673 332.96 85.8778 333.083 87 333.674C88.1235 334.27 88.9645 335.288 89.3386 336.504C89.7126 337.719 89.5891 339.034 88.9952 340.158Z" fill="white" stroke="#263238" stroke-linecap="round" stroke-linejoin="round"/>
<path d="M40.7392 340.843L54.4504 366.873L48.8708 369.82L35.1596 343.789L40.7392 340.843Z" fill="#263238" stroke="#263238" stroke-linecap="round" stroke-linejoin="round"/>
<path d="M53.6036 359.716C53.4003 358.512 52.8443 357.395 52.0061 356.508C51.168 355.62 50.0852 355 48.8949 354.728C47.7047 354.456 46.4603 354.543 45.3195 354.978C44.1786 355.413 43.1924 356.177 42.4858 357.172C41.7792 358.168 41.3838 359.351 41.3498 360.572C41.3157 361.792 41.6446 362.996 42.2946 364.029C42.9447 365.063 43.8867 365.88 45.0016 366.378C46.1165 366.876 47.354 367.032 48.5576 366.827C50.169 366.552 51.6053 365.648 52.5514 364.315C53.4974 362.982 53.8758 361.328 53.6036 359.716Z" fill="white" stroke="#263238" stroke-linecap="round" stroke-linejoin="round"/>
<path d="M59.6356 360.528C63.0439 360.528 65.8068 357.765 65.8068 354.357C65.8068 350.949 63.0439 348.186 59.6356 348.186C56.2273 348.186 53.4644 350.949 53.4644 354.357C53.4644 357.765 56.2273 360.528 59.6356 360.528Z" fill="white" stroke="#263238" stroke-linecap="round" stroke-linejoin="round"/>
<path d="M79.7732 357.918C79.9589 356.711 79.7825 355.477 79.2663 354.37C78.7501 353.264 77.9174 352.335 76.8733 351.702C75.8293 351.069 74.621 350.76 73.4013 350.814C72.1816 350.868 71.0053 351.283 70.0212 352.005C69.0371 352.728 68.2895 353.726 67.8729 354.874C67.4564 356.021 67.3896 357.267 67.681 358.452C67.9725 359.638 68.6091 360.711 69.5102 361.534C70.4114 362.358 71.5366 362.896 72.7436 363.08C73.5442 363.204 74.3614 363.168 75.1483 362.975C75.9352 362.783 76.6763 362.437 77.3293 361.957C77.9823 361.478 78.5342 360.874 78.9536 360.181C79.373 359.488 79.6515 358.719 79.7732 357.918Z" fill="white" stroke="#263238" stroke-linecap="round" stroke-linejoin="round"/>
<path d="M41.3772 338.465L45.1588 345.61L36.6908 350.1L32.9092 342.942C32.6138 342.387 32.4311 341.778 32.3716 341.152C32.312 340.525 32.3768 339.893 32.5622 339.292C32.7475 338.69 33.0499 338.131 33.4518 337.647C33.8538 337.163 34.3474 336.763 34.9044 336.47C36.028 335.879 37.3396 335.758 38.5525 336.132C39.7653 336.506 40.7809 337.344 41.3772 338.465Z" fill="white" stroke="#263238" stroke-linecap="round" stroke-linejoin="round"/>
<path d="M78.59 371.629C78.59 376.244 76.7568 380.67 73.4937 383.933C70.2305 387.196 65.8048 389.029 61.19 389.029C60.61 389.029 60.03 389.029 59.4848 388.96C56.3196 388.646 53.301 387.47 50.757 385.561C48.213 383.652 46.241 381.082 45.0554 378.131C43.8697 375.179 43.5158 371.959 44.0319 368.821C44.5481 365.682 45.9147 362.745 47.9832 360.329C50.0517 357.913 52.7429 356.11 55.7644 355.116C58.7858 354.122 62.0219 353.975 65.1208 354.692C68.2198 355.408 71.063 356.96 73.3416 359.18C75.6202 361.399 77.2468 364.2 78.0448 367.279C78.4046 368.701 78.5877 370.162 78.59 371.629Z" fill="white" stroke="#263238" stroke-linecap="round" stroke-linejoin="round"/>
<path d="M78.59 371.629C78.59 376.244 76.7568 380.67 73.4937 383.933C70.2305 387.196 65.8048 389.029 61.19 389.029C60.61 389.029 60.03 389.029 59.4848 388.96C58.8182 386.385 58.7505 383.692 59.2871 381.087C59.8237 378.483 60.9501 376.036 62.58 373.934C64.2098 371.833 66.2996 370.133 68.6889 368.965C71.0782 367.797 73.7034 367.193 76.3628 367.198C76.9312 367.198 77.5228 367.198 78.068 367.279C78.4199 368.702 78.5953 370.163 78.59 371.629Z" fill="white" stroke="#263238" stroke-linecap="round" stroke-linejoin="round"/>
<path d="M166.206 423.969C169.16 411.343 161.32 398.713 148.694 395.759C136.068 392.804 123.438 400.644 120.484 413.27C117.53 425.896 125.37 438.526 137.995 441.48C150.621 444.435 163.251 436.595 166.206 423.969Z" fill="white" stroke="#263238" stroke-linecap="round" stroke-linejoin="round"/>
<path d="M147.707 429.119C153.507 426.699 156.248 420.036 153.829 414.235C151.41 408.435 144.746 405.694 138.946 408.113C133.145 410.532 130.404 417.196 132.824 422.996C135.243 428.797 141.906 431.538 147.707 429.119Z" fill="#263238" stroke="#263238" stroke-linecap="round" stroke-linejoin="round"/>
<path d="M139.304 517.952H243.472L244.969 510.899C245.569 508.081 245.03 505.141 243.469 502.72C241.909 500.299 239.454 498.593 236.64 497.976C221.873 494.659 189.904 493.464 189.904 493.464C182.201 493.708 160.764 494.624 145.998 497.988C143.204 498.626 140.773 500.338 139.232 502.754C137.69 505.17 137.162 508.096 137.762 510.899L139.304 517.952Z" fill="white" stroke="#263238" stroke-linecap="round" stroke-linejoin="round"/>
<path d="M216.456 495.181C203.116 493.951 189.938 493.464 189.938 493.464C185.09 493.615 174.789 494.044 164.14 495.181C167.249 505.795 177.782 513.613 190.298 513.613C202.814 513.613 213.347 505.76 216.456 495.181Z" fill="#8F00FF" stroke="#263238" stroke-linecap="round" stroke-linejoin="round"/>
<path d="M299.098 468.212L305.578 459.529L248.959 417.28L242.48 425.964L299.098 468.212Z" fill="#263238" stroke="#263238" stroke-linecap="round" stroke-linejoin="round"/>
<path d="M270.922 493.846L279.606 500.326L305.531 465.583L296.847 459.103L270.922 493.846Z" fill="#263238" stroke="#263238" stroke-linecap="round" stroke-linejoin="round"/>
<path d="M293.329 456.251C294.11 455.204 295.09 454.321 296.212 453.653C297.335 452.985 298.578 452.545 299.871 452.357C301.164 452.17 302.481 452.239 303.747 452.561C305.013 452.883 306.203 453.451 307.249 454.233L308.003 454.848C309.345 456.071 310.325 457.639 310.838 459.381C311.35 461.123 311.375 462.973 310.91 464.728C310.445 466.483 309.507 468.077 308.199 469.337C306.891 470.596 305.263 471.473 303.491 471.871C301.72 472.27 299.873 472.175 298.151 471.597C296.43 471.019 294.9 469.98 293.728 468.593C292.556 467.207 291.786 465.525 291.503 463.731C291.22 461.938 291.435 460.101 292.123 458.42C292.434 457.651 292.839 456.922 293.329 456.251Z" fill="white" stroke="#263238" stroke-linecap="round" stroke-linejoin="round"/>
<path d="M270.674 484.01C272.145 481.826 274.423 480.315 277.008 479.811C279.592 479.306 282.271 479.848 284.455 481.319C284.722 481.493 284.977 481.69 285.232 481.887C286.633 483.043 287.69 484.561 288.288 486.276C288.885 487.99 289.002 489.836 288.624 491.612C288.246 493.389 287.388 495.027 286.143 496.35C284.899 497.672 283.315 498.628 281.566 499.113C279.816 499.599 277.966 499.595 276.218 499.102C274.47 498.61 272.891 497.647 271.652 496.32C270.413 494.992 269.562 493.35 269.191 491.572C268.82 489.795 268.944 487.949 269.549 486.237C269.83 485.451 270.208 484.703 270.674 484.01Z" fill="white" stroke="#263238" stroke-linecap="round" stroke-linejoin="round"/>
<path d="M240.858 496.437L257.182 498.041L257.798 491.761L241.475 490.157L240.858 496.437Z" fill="#263238" stroke="#263238" stroke-linecap="round" stroke-linejoin="round"/>
<path d="M239.865 488.36L247.915 489.149L246.976 498.684L238.925 497.895C237.661 497.772 236.497 497.152 235.69 496.171C234.883 495.189 234.499 493.928 234.622 492.664C234.748 491.398 235.371 490.235 236.353 489.428C237.336 488.621 238.599 488.237 239.865 488.36Z" fill="white" stroke="#263238" stroke-linecap="round" stroke-linejoin="round"/>
<path d="M255.989 492.42C257.264 490.52 258.901 488.89 260.807 487.624C262.712 486.357 264.849 485.479 267.094 485.039C269.34 484.6 271.65 484.607 273.892 485.062C276.135 485.516 278.266 486.408 280.163 487.687C280.639 488.012 281.091 488.348 281.532 488.708C283.984 490.735 285.834 493.395 286.88 496.4C287.926 499.404 288.129 502.638 287.465 505.75C286.802 508.861 285.298 511.731 283.117 514.048C280.936 516.364 278.162 518.039 275.096 518.888C272.03 519.738 268.79 519.731 265.728 518.868C262.666 518.005 259.899 516.319 257.728 513.993C255.557 511.668 254.065 508.791 253.415 505.677C252.765 502.562 252.981 499.329 254.04 496.329C254.52 494.948 255.175 493.635 255.989 492.42Z" fill="white" stroke="#263238" stroke-linecap="round" stroke-linejoin="round"/>
<path d="M237.243 510.493L258.819 494.357L262.288 498.986L240.712 515.11L237.243 510.493Z" fill="#263238" stroke="#263238" stroke-linecap="round" stroke-linejoin="round"/>
<path d="M235.004 510.249L240.932 505.76L246.198 512.72L240.271 517.163C239.34 517.859 238.171 518.158 237.02 517.992C235.869 517.827 234.831 517.212 234.134 516.281C233.466 515.36 233.183 514.215 233.346 513.089C233.508 511.962 234.103 510.944 235.004 510.249Z" fill="white" stroke="#263238" stroke-linecap="round" stroke-linejoin="round"/>
<path d="M265.106 499.334C265.38 498.142 265.295 496.896 264.86 495.754C264.425 494.611 263.66 493.624 262.663 492.917C261.666 492.209 260.482 491.814 259.26 491.781C258.038 491.748 256.833 492.078 255.799 492.73C254.766 493.383 253.949 494.327 253.452 495.445C252.956 496.562 252.803 497.801 253.012 499.006C253.221 500.21 253.783 501.325 254.627 502.21C255.471 503.094 256.559 503.708 257.752 503.974C259.342 504.327 261.008 504.038 262.385 503.169C263.763 502.3 264.741 500.921 265.106 499.334Z" fill="white" stroke="#263238" stroke-linecap="round" stroke-linejoin="round"/>
<path d="M276.544 526.71L279.746 504.577L284.49 505.25L281.3 527.382L276.544 526.71Z" fill="#263238" stroke="#263238" stroke-linecap="round" stroke-linejoin="round"/>
<path d="M275.094 527.881L275.964 521.791L283.168 522.824L282.298 528.902C282.231 529.376 282.071 529.832 281.828 530.244C281.585 530.656 281.263 531.016 280.88 531.304C280.498 531.591 280.063 531.801 279.599 531.92C279.136 532.039 278.653 532.066 278.18 531.999C277.225 531.861 276.364 531.35 275.785 530.578C275.207 529.806 274.958 528.836 275.094 527.881Z" fill="white" stroke="#263238" stroke-linecap="round" stroke-linejoin="round"/>
<path d="M286.346 503.8C285.8 502.949 285.014 502.279 284.087 501.874C283.16 501.47 282.134 501.349 281.139 501.527C280.144 501.705 279.224 502.174 278.495 502.875C277.766 503.576 277.261 504.477 277.044 505.465C276.827 506.453 276.908 507.482 277.276 508.424C277.644 509.366 278.283 510.178 279.112 510.757C279.941 511.336 280.923 511.656 281.934 511.677C282.945 511.698 283.939 511.419 284.792 510.876C285.935 510.143 286.741 508.986 287.032 507.659C287.324 506.332 287.077 504.944 286.346 503.8Z" fill="white" stroke="#263238" stroke-linecap="round" stroke-linejoin="round"/>
<path d="M255.188 523.763L269.572 500.981L274.456 504.043L260.084 526.837L255.188 523.763Z" fill="#263238" stroke="#263238" stroke-linecap="round" stroke-linejoin="round"/>
<path d="M253.019 524.32L256.952 518.056L264.387 522.696L260.443 528.972C259.823 529.953 258.838 530.65 257.706 530.908C256.574 531.167 255.385 530.967 254.4 530.352C253.419 529.734 252.723 528.752 252.464 527.621C252.205 526.491 252.405 525.304 253.019 524.32Z" fill="white" stroke="#263238" stroke-linecap="round" stroke-linejoin="round"/>
<path d="M277.24 503.37C277.068 502.162 276.541 501.033 275.726 500.125C274.911 499.217 273.845 498.571 272.662 498.27C271.48 497.969 270.235 498.025 269.085 498.433C267.935 498.84 266.931 499.58 266.202 500.559C265.473 501.537 265.051 502.71 264.99 503.929C264.929 505.148 265.231 506.357 265.858 507.404C266.485 508.451 267.408 509.288 268.512 509.809C269.615 510.33 270.848 510.511 272.055 510.33C273.664 510.092 275.113 509.226 276.085 507.922C277.057 506.617 277.472 504.98 277.24 503.37Z" fill="white" stroke="#263238" stroke-linecap="round" stroke-linejoin="round"/>
<path d="M250.593 438.769C261.496 431.75 264.645 417.222 257.626 406.319C250.608 395.416 236.08 392.267 225.177 399.285C214.273 406.304 211.124 420.832 218.143 431.735C225.161 442.638 239.69 445.787 250.593 438.769Z" fill="white" stroke="#263238" stroke-linecap="round" stroke-linejoin="round"/>
<path d="M248.238 423.78C250.858 418.067 248.351 411.312 242.638 408.692C236.926 406.072 230.171 408.579 227.551 414.291C224.93 420.004 227.437 426.759 233.15 429.379C238.862 431.999 245.617 429.492 248.238 423.78Z" fill="#263238" stroke="#263238" stroke-linecap="round" stroke-linejoin="round"/>
<path d="M190.286 372.499C211.114 372.499 227.998 355.615 227.998 334.788C227.998 313.96 211.114 297.076 190.286 297.076C169.459 297.076 152.575 313.96 152.575 334.788C152.575 355.615 169.459 372.499 190.286 372.499Z" fill="#8F00FF" stroke="#263238" stroke-linecap="round" stroke-linejoin="round"/>
<path d="M244.203 359.902C252.302 349.748 257.371 337.514 258.826 324.608C260.281 311.701 258.063 298.646 252.429 286.944C246.794 275.242 237.97 265.368 226.973 258.458C215.976 251.547 203.251 247.881 190.263 247.881C177.275 247.881 164.551 251.547 153.553 258.458C142.556 265.368 133.733 275.242 128.098 286.944C122.463 298.646 120.246 311.701 121.701 324.608C123.156 337.514 128.224 349.748 136.323 359.902H244.203Z" fill="white" stroke="#263238" stroke-linecap="round" stroke-linejoin="round"/>
<path d="M232.487 290.835H146.346C141.105 290.835 136.857 295.083 136.857 300.324V330.855C136.857 336.096 141.105 340.344 146.346 340.344H232.487C237.728 340.344 241.976 336.096 241.976 330.855V300.324C241.976 295.083 237.728 290.835 232.487 290.835Z" fill="#8F00FF" stroke="#263238" stroke-linecap="round" stroke-linejoin="round"/>
<path d="M148.225 313.583C149.364 310.393 151.44 307.622 154.182 305.633C156.923 303.643 160.201 302.528 163.587 302.434C166.973 302.34 170.308 303.271 173.156 305.105C176.003 306.94 178.23 309.591 179.545 312.713" stroke="#263238" stroke-width="5" stroke-linecap="round" stroke-linejoin="round"/>
<path d="M200.181 313.583C201.32 310.393 203.397 307.622 206.138 305.633C208.879 303.643 212.158 302.528 215.544 302.434C218.929 302.34 222.265 303.271 225.112 305.105C227.96 306.94 230.187 309.591 231.501 312.713" stroke="#263238" stroke-width="5" stroke-linecap="round" stroke-linejoin="round"/>
<path d="M181.192 325.055C181.483 327.356 182.604 329.471 184.343 331.004C186.082 332.537 188.322 333.383 190.64 333.383C192.959 333.383 195.198 332.537 196.937 331.004C198.677 329.471 199.797 327.356 200.088 325.055H181.192Z" fill="white" stroke="#263238" stroke-linecap="round" stroke-linejoin="round"/>
<path d="M279.56 328.976C277.646 328.976 275.811 328.216 274.458 326.863C273.105 325.51 272.345 323.674 272.345 321.761V305.347C272.343 304.398 272.529 303.459 272.891 302.582C273.253 301.705 273.784 300.909 274.454 300.237C275.124 299.566 275.92 299.034 276.796 298.67C277.672 298.307 278.612 298.12 279.56 298.12C280.508 298.118 281.448 298.304 282.325 298.666C283.201 299.028 283.998 299.559 284.669 300.229C285.341 300.899 285.873 301.695 286.236 302.571C286.6 303.448 286.787 304.387 286.787 305.335V321.749C286.788 322.699 286.602 323.639 286.24 324.517C285.877 325.394 285.345 326.191 284.674 326.863C284.002 327.534 283.205 328.066 282.327 328.429C281.45 328.792 280.509 328.978 279.56 328.976Z" fill="#263238" stroke="#263238" stroke-linecap="round" stroke-linejoin="round"/>
<path d="M99.0408 328.976C98.0923 328.978 97.1528 328.792 96.2761 328.43C95.3994 328.068 94.6026 327.537 93.9314 326.867C93.2602 326.197 92.7277 325.401 92.3643 324.525C92.001 323.648 91.814 322.709 91.814 321.761V305.347C91.8125 304.397 91.9984 303.457 92.361 302.579C92.7236 301.702 93.2559 300.905 93.9273 300.233C94.5987 299.562 95.3959 299.03 96.2734 298.667C97.1509 298.304 98.0913 298.118 99.0408 298.12C99.9883 298.12 100.927 298.307 101.802 298.669C102.677 299.032 103.473 299.563 104.143 300.233C104.813 300.903 105.344 301.699 105.707 302.574C106.069 303.449 106.256 304.388 106.256 305.335V321.749C106.258 322.698 106.072 323.637 105.71 324.514C105.348 325.391 104.817 326.187 104.147 326.859C103.477 327.53 102.681 328.062 101.805 328.426C100.928 328.789 99.9893 328.976 99.0408 328.976Z" fill="#263238" stroke="#263238" stroke-linecap="round" stroke-linejoin="round"/>
<path d="M122.171 254.91C115.789 264.34 112.386 275.47 112.404 286.856V298.781" stroke="#263238" stroke-width="14" stroke-linecap="round" stroke-linejoin="round"/>
<path d="M259.144 254.956C253.921 247.175 246.863 240.799 238.593 236.391C230.323 231.982 221.095 229.678 211.723 229.68H169.557C160.199 229.673 150.982 231.968 142.719 236.362C134.455 240.755 127.399 247.113 122.171 254.875" stroke="#263238" stroke-width="7" stroke-linecap="round" stroke-linejoin="round"/>
<path d="M268.865 298.781V286.856C268.883 275.491 265.497 264.38 259.144 254.956" stroke="#263238" stroke-width="14" stroke-linecap="round" stroke-linejoin="round"/>
<path d="M118.158 285.94H108.483C102.884 285.94 98.3448 290.479 98.3448 296.078V329.591C98.3448 335.19 102.884 339.729 108.483 339.729H118.158C123.757 339.729 128.296 335.19 128.296 329.591V296.078C128.296 290.479 123.757 285.94 118.158 285.94Z" fill="white" stroke="#263238" stroke-linecap="round" stroke-linejoin="round"/>
<path d="M114.852 285.94H111.801V339.729H114.852V285.94Z" fill="#8F00FF" stroke="#263238" stroke-linecap="round" stroke-linejoin="round"/>
<path d="M270.953 285.94H261.278C255.679 285.94 251.14 290.479 251.14 296.078V329.591C251.14 335.19 255.679 339.729 261.278 339.729H270.953C276.552 339.729 281.091 335.19 281.091 329.591V296.078C281.091 290.479 276.552 285.94 270.953 285.94Z" fill="white" stroke="#263238" stroke-linecap="round" stroke-linejoin="round"/>
<path d="M267.647 285.94H264.596V339.729H267.647V285.94Z" fill="#8F00FF" stroke="#263238" stroke-linecap="round" stroke-linejoin="round"/>
<path d="M190.53 281.056C195.814 281.058 201.015 279.736 205.657 277.211C210.299 274.686 214.235 271.039 217.106 266.603L223.648 256.476C213.281 250.751 201.614 247.791 189.771 247.883C177.929 247.974 166.309 251.113 156.032 256.998L165.88 269.224C168.843 272.914 172.595 275.892 176.861 277.94C181.127 279.988 185.798 281.053 190.53 281.056Z" fill="#8F00FF" stroke="#263238" stroke-linecap="round" stroke-linejoin="round"/>
<path d="M192.166 345.355C192.166 345.126 192.098 344.901 191.97 344.711C191.843 344.52 191.661 344.371 191.45 344.283C191.238 344.196 191.004 344.173 190.779 344.217C190.554 344.262 190.348 344.373 190.185 344.535C190.023 344.697 189.913 344.904 189.868 345.129C189.823 345.354 189.846 345.587 189.934 345.799C190.022 346.011 190.17 346.192 190.361 346.32C190.552 346.447 190.776 346.515 191.006 346.515C191.313 346.515 191.608 346.393 191.826 346.175C192.043 345.958 192.166 345.663 192.166 345.355Z" fill="#263238"/>
<path d="M192.166 349.253C192.166 349.023 192.098 348.799 191.97 348.608C191.843 348.418 191.661 348.269 191.45 348.181C191.238 348.093 191.004 348.07 190.779 348.115C190.554 348.16 190.348 348.27 190.185 348.433C190.023 348.595 189.913 348.802 189.868 349.027C189.823 349.252 189.846 349.485 189.934 349.697C190.022 349.909 190.17 350.09 190.361 350.217C190.552 350.345 190.776 350.413 191.006 350.413C191.313 350.413 191.608 350.291 191.826 350.073C192.043 349.856 192.166 349.56 192.166 349.253Z" fill="#263238"/>
<path d="M187.746 348.65C187.958 348.513 188.119 348.311 188.206 348.074C188.293 347.837 188.3 347.579 188.227 347.337C188.153 347.096 188.003 346.885 187.799 346.737C187.595 346.589 187.349 346.511 187.096 346.515C186.885 346.652 186.723 346.854 186.636 347.091C186.55 347.328 186.542 347.586 186.616 347.828C186.689 348.069 186.839 348.28 187.043 348.428C187.247 348.576 187.494 348.654 187.746 348.65Z" fill="#263238"/>
<path d="M194.718 348.65C194.897 348.646 195.073 348.602 195.233 348.519C195.392 348.436 195.53 348.317 195.635 348.172C195.741 348.027 195.811 347.859 195.841 347.682C195.871 347.505 195.859 347.324 195.807 347.152C195.755 346.98 195.663 346.823 195.54 346.693C195.416 346.562 195.265 346.462 195.096 346.401C194.927 346.339 194.747 346.317 194.569 346.337C194.39 346.357 194.219 346.418 194.068 346.515C193.889 346.518 193.712 346.563 193.553 346.646C193.394 346.729 193.256 346.848 193.15 346.993C193.045 347.138 192.974 347.306 192.945 347.483C192.915 347.66 192.926 347.841 192.979 348.013C193.031 348.184 193.122 348.342 193.246 348.472C193.369 348.603 193.521 348.703 193.69 348.764C193.858 348.826 194.039 348.848 194.217 348.828C194.395 348.808 194.567 348.747 194.718 348.65Z" fill="#263238"/>
<path d="M236.64 388.878C221.873 385.549 189.904 384.354 189.904 384.354C182.201 384.598 160.764 385.514 145.998 388.89C143.202 389.525 140.77 391.237 139.228 393.654C137.686 396.071 137.159 398.998 137.762 401.801L151.438 465.786C152.11 468.889 153.822 471.669 156.291 473.664C158.759 475.66 161.836 476.753 165.01 476.76H217.732C220.906 476.753 223.983 475.66 226.451 473.664C228.92 471.669 230.632 468.889 231.304 465.786L244.969 401.801C245.569 398.983 245.03 396.043 243.469 393.622C241.909 391.201 239.454 389.495 236.64 388.878Z" fill="white" stroke="#263238" stroke-linecap="round" stroke-linejoin="round"/>
<path d="M229.912 387.649C213.892 385.259 189.938 384.354 189.938 384.354C178.21 384.69 166.508 385.658 154.883 387.254L170.381 476.76H212.5L229.912 387.649Z" fill="#8F00FF" stroke="#263238" stroke-linecap="round" stroke-linejoin="round"/>
<path d="M203.766 403.808H178.106C172.866 403.808 168.618 408.056 168.618 413.296V425.824C168.618 431.065 172.866 435.313 178.106 435.313H203.766C209.006 435.313 213.254 431.065 213.254 425.824V413.296C213.254 408.056 209.006 403.808 203.766 403.808Z" fill="white" stroke="#263238" stroke-linecap="round" stroke-linejoin="round"/>
<path d="M183.442 416.788H176.216V424.015H183.442V416.788Z" fill="white" stroke="#263238" stroke-linecap="round" stroke-linejoin="round"/>
<path d="M194.544 416.788H187.317V424.015H194.544V416.788Z" fill="white" stroke="#263238" stroke-linecap="round" stroke-linejoin="round"/>
<path d="M205.656 416.788H198.43V424.015H205.656V416.788Z" fill="white" stroke="#263238" stroke-linecap="round" stroke-linejoin="round"/>
<path d="M89.3896 456.53H217.964C219.502 456.53 220.978 457.141 222.065 458.228C223.153 459.316 223.764 460.791 223.764 462.33V534.563H83.5896V462.33C83.5896 460.791 84.2007 459.316 85.2884 458.228C86.3761 457.141 87.8513 456.53 89.3896 456.53Z" fill="white" stroke="#263238" stroke-linecap="round" stroke-linejoin="round"/>
<path d="M223.764 482.49C206.155 486.956 188.082 498.324 154.408 514.332C121.928 529.784 95.3404 529.517 83.5896 528.322V534.563H223.764V482.49Z" fill="#263238" stroke="#263238" stroke-linecap="round" stroke-linejoin="round"/>
<path d="M223.764 530.236H83.5896V534.574H223.764V530.236Z" fill="white" stroke="#263238" stroke-linecap="round" stroke-linejoin="round"/>
<path d="M160.904 495.552C160.904 496.981 160.48 498.379 159.686 499.567C158.892 500.755 157.763 501.682 156.442 502.229C155.122 502.776 153.669 502.919 152.267 502.64C150.865 502.361 149.577 501.673 148.567 500.662C147.556 499.651 146.868 498.364 146.589 496.962C146.31 495.56 146.453 494.107 147 492.786C147.547 491.466 148.473 490.337 149.662 489.543C150.85 488.749 152.247 488.325 153.677 488.325C155.593 488.325 157.432 489.087 158.787 490.442C160.142 491.797 160.904 493.635 160.904 495.552Z" fill="white" stroke="#263238" stroke-linecap="round" stroke-linejoin="round"/>
</svg>
