<svg width="580" height="580" viewBox="0 0 580 580" fill="none" xmlns="http://www.w3.org/2000/svg">
<path d="M528.032 223.532C524.928 211.98 521.152 200.62 516.722 189.509C485.75 111.952 419.352 53.4412 336.632 37.12C254.411 20.996 112.16 43.1868 91.3964 143.272C87.0928 163.989 91.1064 185.426 91.002 206.584C90.7932 246.848 73.602 276.382 54.8216 310.312C40.7044 335.832 28.6868 365.18 35.38 393.588C39.73 412.02 51.62 427.878 65.3892 440.87C112.068 484.834 174.58 493.835 235.909 483.79C264.909 479.034 293.271 466.332 322.004 462.736C358.8 458.096 395.954 469.951 432.587 461.924C467.758 454.221 497.547 428.608 514.878 397.068C543.75 344.52 543.263 280.117 528.032 223.532Z" fill="#8F00FF"/>
<path opacity="0.7" d="M528.032 223.532C524.928 211.98 521.152 200.62 516.722 189.509C485.75 111.952 419.352 53.4412 336.632 37.12C254.411 20.996 112.16 43.1868 91.3964 143.272C87.0928 163.989 91.1064 185.426 91.002 206.584C90.7932 246.848 73.602 276.382 54.8216 310.312C40.7044 335.832 28.6868 365.18 35.38 393.588C39.73 412.02 51.62 427.878 65.3892 440.87C112.068 484.834 174.58 493.835 235.909 483.79C264.909 479.034 293.271 466.332 322.004 462.736C358.8 458.096 395.954 469.951 432.587 461.924C467.758 454.221 497.547 428.608 514.878 397.068C543.75 344.52 543.263 280.117 528.032 223.532Z" fill="white"/>
<path d="M228.926 103.426H139.792V166.785H228.926V103.426Z" fill="#263238" stroke="#263238" stroke-linecap="round" stroke-linejoin="round"/>
<path d="M225.168 107.184H143.55V163.026H225.168V107.184Z" fill="white" stroke="#263238" stroke-linecap="round" stroke-linejoin="round"/>
<path d="M157.98 126.452H211.329" stroke="#263238" stroke-linecap="round" stroke-linejoin="round"/>
<path d="M149.141 135.036H218.834" stroke="#263238" stroke-linecap="round" stroke-linejoin="round"/>
<path d="M149.141 153.259H164.952" stroke="#263238" stroke-linecap="round" stroke-linejoin="round"/>
<path d="M203.278 153.259H219.101" stroke="#263238" stroke-linecap="round" stroke-linejoin="round"/>
<path d="M181.842 146.554L179.696 159.43L184.254 156.206L188.268 159.164L185.322 145.487L181.842 146.554Z" fill="#263238" stroke="#263238" stroke-linecap="round" stroke-linejoin="round"/>
<path d="M188.813 143.84C188.813 142.83 188.514 141.843 187.952 141.003C187.391 140.164 186.593 139.509 185.66 139.123C184.726 138.737 183.7 138.637 182.709 138.835C181.719 139.033 180.809 139.52 180.096 140.235C179.383 140.95 178.898 141.861 178.702 142.851C178.506 143.842 178.609 144.869 178.997 145.801C179.385 146.734 180.041 147.53 180.882 148.089C181.723 148.649 182.711 148.946 183.721 148.944C185.072 148.941 186.368 148.402 187.322 147.445C188.277 146.488 188.813 145.192 188.813 143.84Z" fill="#8F00FF" stroke="#263238" stroke-miterlimit="10"/>
<path d="M333.894 53.5224H244.76V157.029H333.894V53.5224Z" fill="#263238" stroke="#263238" stroke-linecap="round" stroke-linejoin="round"/>
<path d="M330.136 59.6588H248.518V150.893H330.136V59.6588Z" fill="white" stroke="#263238" stroke-linecap="round" stroke-linejoin="round"/>
<path d="M324.649 65.7952H254.017V144.745H324.649V65.7952Z" fill="white" stroke="#263238" stroke-linecap="round" stroke-linejoin="round"/>
<path d="M265.257 76.5484H313.861" stroke="#263238" stroke-linecap="round" stroke-linejoin="round"/>
<path d="M257.195 85.1208H320.705" stroke="#263238" stroke-linecap="round" stroke-linejoin="round"/>
<path d="M258.854 133.412H274.665" stroke="#263238" stroke-linecap="round" stroke-linejoin="round"/>
<path d="M304.558 133.412H320.369" stroke="#263238" stroke-linecap="round" stroke-linejoin="round"/>
<path d="M305.057 103.46L301.472 124.932L309.082 119.573L315.787 124.491L310.868 101.674L305.057 103.46Z" fill="#263238" stroke="#263238" stroke-linecap="round" stroke-linejoin="round"/>
<path d="M310.138 107.263C314.709 106.188 317.543 101.61 316.467 97.0389C315.392 92.4678 310.814 89.634 306.243 90.7095C301.672 91.785 298.838 96.3626 299.913 100.934C300.989 105.505 305.566 108.339 310.138 107.263Z" fill="#8F00FF" stroke="#263238" stroke-miterlimit="10"/>
<path d="M438.596 103.426H349.462V166.785H438.596V103.426Z" fill="#263238" stroke="#263238" stroke-linecap="round" stroke-linejoin="round"/>
<path d="M434.571 113.761C433.057 113.761 431.606 113.16 430.535 112.09C429.465 111.019 428.864 109.568 428.864 108.054C428.863 107.763 428.887 107.472 428.933 107.184H359.078C359.119 107.472 359.142 107.763 359.148 108.054C359.145 109.569 358.541 111.02 357.469 112.09C356.396 113.16 354.944 113.761 353.429 113.761H353.22V156.368H353.429C354.944 156.368 356.396 156.969 357.469 158.039C358.541 159.109 359.145 160.561 359.148 162.075C359.145 162.402 359.114 162.728 359.055 163.05H428.945C428.895 162.727 428.868 162.402 428.864 162.075C428.864 160.562 429.465 159.11 430.535 158.04C431.606 156.969 433.057 156.368 434.571 156.368H434.838V113.75L434.571 113.761Z" fill="white" stroke="#263238" stroke-linecap="round" stroke-linejoin="round"/>
<path d="M379.169 126.452H420.987" stroke="#263238" stroke-linecap="round" stroke-linejoin="round"/>
<path d="M378.694 135.036H428.492" stroke="#263238" stroke-linecap="round" stroke-linejoin="round"/>
<path d="M358.8 153.259H374.61" stroke="#263238" stroke-linecap="round" stroke-linejoin="round"/>
<path d="M412.948 153.259H428.759" stroke="#263238" stroke-linecap="round" stroke-linejoin="round"/>
<path d="M365.214 127.159L362.326 144.513L368.474 140.174L373.891 144.153L369.912 125.709L365.214 127.159Z" fill="#263238" stroke="#263238" stroke-linecap="round" stroke-linejoin="round"/>
<path d="M374.68 123.54C374.682 122.179 374.281 120.848 373.526 119.715C372.772 118.582 371.698 117.699 370.442 117.177C369.185 116.654 367.801 116.516 366.466 116.78C365.131 117.044 363.904 117.699 362.941 118.66C361.978 119.622 361.322 120.847 361.055 122.182C360.789 123.517 360.925 124.901 361.445 126.158C361.965 127.416 362.847 128.491 363.978 129.247C365.11 130.003 366.44 130.407 367.801 130.407C369.624 130.407 371.371 129.684 372.661 128.397C373.951 127.109 374.677 125.362 374.68 123.54Z" fill="#8F00FF" stroke="#263238" stroke-miterlimit="10"/>
<path d="M474.196 182.248H384.238V254.713H474.196V182.248Z" stroke="#263238" stroke-linecap="round" stroke-linejoin="round"/>
<path d="M469.545 185.994H388.89V250.966H469.545V185.994Z" fill="#263238" stroke="#263238" stroke-linecap="round" stroke-linejoin="round"/>
<path d="M462.573 191.62H395.873V245.352H462.573V191.62Z" fill="white" stroke="#263238" stroke-linecap="round" stroke-linejoin="round"/>
<path d="M403.193 226.513L401.186 238.531L405.443 235.526L409.202 238.287L406.452 225.516L403.193 226.513Z" fill="#263238" stroke="#263238" stroke-linecap="round" stroke-linejoin="round"/>
<path d="M404.944 228.764C407.571 228.764 409.701 226.634 409.701 224.008C409.701 221.381 407.571 219.252 404.944 219.252C402.318 219.252 400.188 221.381 400.188 224.008C400.188 226.634 402.318 228.764 404.944 228.764Z" fill="#8F00FF" stroke="#263238" stroke-miterlimit="10"/>
<path d="M456.216 209.6C451.762 201.422 441.357 195.68 429.212 195.68C417.89 195.68 408.065 200.692 403.181 208.023" stroke="#263238" stroke-linecap="round" stroke-linejoin="round"/>
<path d="M412.809 216.224H446.96" stroke="#263238" stroke-linecap="round" stroke-linejoin="round"/>
<path d="M412.809 221.606H446.96" stroke="#263238" stroke-linecap="round" stroke-linejoin="round"/>
<path d="M412.809 234.065H446.96" stroke="#263238" stroke-linecap="round" stroke-linejoin="round"/>
<path d="M191.006 182.248H101.048V254.713H191.006V182.248Z" stroke="#263238" stroke-linecap="round" stroke-linejoin="round"/>
<path d="M186.354 185.994H105.699V250.966H186.354V185.994Z" fill="#263238" stroke="#263238" stroke-linecap="round" stroke-linejoin="round"/>
<path d="M179.382 191.62H112.682V245.352H179.382V191.62Z" fill="white" stroke="#263238" stroke-linecap="round" stroke-linejoin="round"/>
<path d="M120.002 226.513L118.007 238.531L122.264 235.526L126.022 238.287L123.262 225.516L120.002 226.513Z" fill="#263238" stroke="#263238" stroke-linecap="round" stroke-linejoin="round"/>
<path d="M121.765 228.764C124.392 228.764 126.521 226.634 126.521 224.008C126.521 221.381 124.392 219.252 121.765 219.252C119.139 219.252 117.009 221.381 117.009 224.008C117.009 226.634 119.139 228.764 121.765 228.764Z" fill="#8F00FF" stroke="#263238" stroke-miterlimit="10"/>
<path d="M173.026 209.6C168.583 201.422 158.166 195.68 146.032 195.68C134.699 195.68 124.874 200.692 120.002 208.023" stroke="#263238" stroke-linecap="round" stroke-linejoin="round"/>
<path d="M129.63 216.224H163.78" stroke="#263238" stroke-linecap="round" stroke-linejoin="round"/>
<path d="M129.63 221.606H163.78" stroke="#263238" stroke-linecap="round" stroke-linejoin="round"/>
<path d="M129.63 234.065H163.78" stroke="#263238" stroke-linecap="round" stroke-linejoin="round"/>
<path d="M388.032 402.126V548.181H381.014V402.126H376.548V552.74H377.545H381.014H388.032H392.498V548.181V402.126H388.032Z" fill="#263238" stroke="#263238" stroke-linecap="round" stroke-linejoin="round"/>
<path d="M520.132 402.126V548.181H513.752V402.126H509.286V552.74H509.321H513.752H520.132H524.274H524.598V402.126H520.132Z" fill="#263238" stroke="#263238" stroke-linecap="round" stroke-linejoin="round"/>
<path d="M514.321 355.54H386.837C383.621 355.54 381.014 358.147 381.014 361.363V450.556C381.014 453.772 383.621 456.379 386.837 456.379H514.321C517.537 456.379 520.144 453.772 520.144 450.556V361.363C520.144 358.147 517.537 355.54 514.321 355.54Z" fill="white" stroke="#263238" stroke-linecap="round" stroke-linejoin="round"/>
<path d="M519.819 477.92H380.689C380.312 477.922 379.939 477.849 379.591 477.705C379.242 477.562 378.926 477.351 378.659 477.084C378.393 476.818 378.182 476.501 378.039 476.153C377.895 475.805 377.822 475.432 377.824 475.055V454.639C377.824 453.879 378.126 453.15 378.663 452.613C379.2 452.076 379.929 451.774 380.689 451.774L446.113 454.685C451.093 454.902 456.07 454.902 461.042 454.685L519.819 451.808C520.578 451.812 521.305 452.114 521.842 452.651C522.379 453.188 522.681 453.915 522.684 454.674V475.101C522.672 475.853 522.365 476.57 521.829 477.097C521.293 477.625 520.571 477.92 519.819 477.92Z" fill="white" stroke="#263238" stroke-linecap="round" stroke-linejoin="round"/>
<path d="M49.88 552.74H546.36" stroke="#263238" stroke-linecap="round" stroke-linejoin="round"/>
<path d="M83.2532 344.056L99.7136 501.781" stroke="#263238" stroke-linecap="round" stroke-linejoin="round"/>
<path d="M96.4772 470.937L89.5984 463.71" stroke="#263238" stroke-linecap="round" stroke-linejoin="round"/>
<path d="M91.872 466.076C91.856 464.87 91.5828 463.681 91.0707 462.589C90.5586 461.497 89.8194 460.526 88.9024 459.743C86.9884 458.038 76.908 453.792 75.9452 457.342C74.9128 461.204 85.2252 468.791 91.872 466.076Z" fill="#8F00FF" stroke="#263238" stroke-miterlimit="10"/>
<path d="M91.872 466.076L82.2787 460.091" stroke="#263238" stroke-linecap="round" stroke-linejoin="round"/>
<path d="M98.1823 487.235L91.4775 481.655" stroke="#263238" stroke-linecap="round" stroke-linejoin="round"/>
<path d="M93.7396 484.01C93.7264 482.805 93.4545 481.617 92.9421 480.526C92.4298 479.435 91.689 478.468 90.77 477.688C88.856 475.971 78.7756 471.737 77.8244 475.287C76.7804 479.15 87.0928 486.724 93.7396 484.01Z" fill="#8F00FF" stroke="#263238" stroke-miterlimit="10"/>
<path d="M93.7396 484.01L84.1464 478.036" stroke="#263238" stroke-linecap="round" stroke-linejoin="round"/>
<path d="M91.8139 426.045L85.0396 419.943" stroke="#263238" stroke-linecap="round" stroke-linejoin="round"/>
<path d="M87.3016 422.31C87.2893 421.103 87.0178 419.913 86.5055 418.82C85.9931 417.727 85.2519 416.757 84.332 415.976C82.418 414.271 72.3376 410.025 71.3864 413.575C70.3424 417.438 80.6548 425.024 87.3016 422.31Z" fill="#8F00FF" stroke="#263238" stroke-miterlimit="10"/>
<path d="M87.3016 422.31L77.7084 416.324" stroke="#263238" stroke-linecap="round" stroke-linejoin="round"/>
<path d="M93.7048 445.115L86.9072 437.877" stroke="#263238" stroke-linecap="round" stroke-linejoin="round"/>
<path d="M89.1692 440.243C89.1569 439.036 88.8855 437.846 88.3731 436.754C87.8607 435.661 87.1195 434.691 86.1996 433.91C84.2856 432.204 74.24 427.959 73.254 431.52C72.21 435.371 82.534 442.958 89.1692 440.243Z" fill="#8F00FF" stroke="#263238" stroke-miterlimit="10"/>
<path d="M89.1692 440.243L79.576 434.258" stroke="#263238" stroke-linecap="round" stroke-linejoin="round"/>
<path d="M88.7864 397.729L82.0004 390.804" stroke="#263238" stroke-linecap="round" stroke-linejoin="round"/>
<path d="M84.2624 393.17C84.2464 391.964 83.9732 390.775 83.4611 389.683C82.949 388.591 82.2098 387.621 81.2928 386.837C79.3788 385.132 69.2984 380.886 68.3356 384.436C67.28 388.298 77.6156 395.885 84.2624 393.17Z" fill="#8F00FF" stroke="#263238" stroke-miterlimit="10"/>
<path d="M84.2624 393.17L74.6692 387.185" stroke="#263238" stroke-linecap="round" stroke-linejoin="round"/>
<path d="M85.5152 366.572L78.938 361.537" stroke="#263238" stroke-linecap="round" stroke-linejoin="round"/>
<path d="M81.2 363.904C81.184 362.697 80.9108 361.509 80.3987 360.416C79.8866 359.324 79.1474 358.354 78.2304 357.57C76.3164 355.865 66.236 351.619 65.2732 355.169C64.2408 359.032 74.5648 366.618 81.2 363.904Z" fill="#8F00FF" stroke="#263238" stroke-miterlimit="10"/>
<path d="M81.2115 363.904L71.6068 357.918" stroke="#263238" stroke-linecap="round" stroke-linejoin="round"/>
<path d="M95.816 460.984L101.488 451.727" stroke="#263238" stroke-linecap="round" stroke-linejoin="round"/>
<path d="M99.76 454.511C99.5304 453.338 99.5533 452.128 99.8273 450.964C100.101 449.8 100.62 448.708 101.349 447.76C102.869 445.695 111.859 439.466 113.529 442.737C115.35 446.24 106.813 455.787 99.76 454.511Z" fill="#8F00FF" stroke="#263238" stroke-miterlimit="10"/>
<path d="M99.7599 454.511L106.511 448.178" stroke="#263238" stroke-linecap="round" stroke-linejoin="round"/>
<path d="M90.886 413.784L96.5584 404.527" stroke="#263238" stroke-linecap="round" stroke-linejoin="round"/>
<path d="M94.8299 407.311C94.5956 406.127 94.6172 404.907 94.8933 403.733C95.1694 402.558 95.6936 401.457 96.4307 400.502C97.9503 398.437 104.98 393.252 106.65 396.523C108.46 400.084 101.894 408.587 94.8299 407.311Z" fill="#8F00FF" stroke="#263238" stroke-miterlimit="10"/>
<path d="M94.83 407.311L103.472 399.052" stroke="#263238" stroke-linecap="round" stroke-linejoin="round"/>
<path d="M88.7168 393.031L94.3892 383.786" stroke="#263238" stroke-linecap="round" stroke-linejoin="round"/>
<path d="M92.6608 386.558C92.4266 385.377 92.4484 384.159 92.7245 382.986C93.0006 381.813 93.5247 380.714 94.2616 379.761C95.7812 377.684 104.771 371.455 106.442 374.738C108.251 378.299 99.76 387.846 92.6608 386.558Z" fill="#8F00FF" stroke="#263238" stroke-miterlimit="10"/>
<path d="M92.6608 386.558L101.303 378.299" stroke="#263238" stroke-linecap="round" stroke-linejoin="round"/>
<path d="M85.55 362.628L91.2224 353.371" stroke="#263238" stroke-linecap="round" stroke-linejoin="round"/>
<path d="M89.494 356.12C89.2596 354.936 89.2812 353.717 89.5573 352.542C89.8334 351.368 90.3576 350.266 91.0947 349.311C92.6144 347.246 101.535 341.017 103.263 344.288C105.084 347.884 96.5468 357.442 89.494 356.12Z" fill="#8F00FF" stroke="#263238" stroke-miterlimit="10"/>
<path d="M89.494 356.155L98.136 347.896" stroke="#263238" stroke-linecap="round" stroke-linejoin="round"/>
<path d="M83.1255 343.186C82.8859 342.009 82.9006 340.795 83.1687 339.625C83.4368 338.454 83.9521 337.355 84.6799 336.4C86.1995 334.335 95.1895 328.106 96.8599 331.377C98.7159 334.915 90.1783 344.52 83.1255 343.186Z" fill="#8F00FF" stroke="#263238" stroke-miterlimit="10"/>
<path d="M83.1255 343.186L91.7559 334.927" stroke="#263238" stroke-linecap="round" stroke-linejoin="round"/>
<path d="M83.6244 343.546C82.4224 343.652 81.2115 343.5 80.073 343.1C78.9345 342.7 77.8949 342.061 77.024 341.226C75.1216 339.497 69.8668 329.904 73.3004 328.582C77.0356 327.12 85.6428 336.655 83.6244 343.546Z" fill="#8F00FF" stroke="#263238" stroke-miterlimit="10"/>
<path d="M83.6243 343.546L76.3163 334.08" stroke="#263238" stroke-linecap="round" stroke-linejoin="round"/>
<path d="M107.915 301.554V501.016" stroke="#263238" stroke-linecap="round" stroke-linejoin="round"/>
<path d="M126.672 365.783L110.304 523.508" stroke="#263238" stroke-linecap="round" stroke-linejoin="round"/>
<path d="M113.761 491.283L109.98 486.956" stroke="#263238" stroke-linecap="round" stroke-linejoin="round"/>
<path d="M109.98 486.956C110.214 485.773 110.192 484.553 109.916 483.379C109.64 482.204 109.116 481.102 108.379 480.147C106.848 478.082 97.8575 471.853 96.1987 475.136C94.3775 478.697 102.915 488.244 109.98 486.956Z" fill="#8F00FF" stroke="#263238" stroke-miterlimit="10"/>
<path d="M109.98 486.956L101.813 479.126" stroke="#263238" stroke-linecap="round" stroke-linejoin="round"/>
<path d="M118.39 446.252L112.764 441.554" stroke="#263238" stroke-linecap="round" stroke-linejoin="round"/>
<path d="M114.515 443.178C114.749 441.996 114.728 440.778 114.451 439.606C114.175 438.433 113.651 437.333 112.914 436.38C111.395 434.304 102.405 428.086 100.734 431.358C98.9248 434.93 107.462 444.466 114.515 443.178Z" fill="#8F00FF" stroke="#263238" stroke-miterlimit="10"/>
<path d="M114.515 443.178L106.36 435.36" stroke="#263238" stroke-linecap="round" stroke-linejoin="round"/>
<path d="M116.603 467.596L110.931 458.339" stroke="#263238" stroke-linecap="round" stroke-linejoin="round"/>
<path d="M112.659 461.123C112.894 459.94 112.872 458.72 112.596 457.545C112.32 456.371 111.796 455.269 111.058 454.314C109.527 452.249 100.537 446.02 98.8784 449.303C97.0572 452.864 105.56 462.411 112.659 461.123Z" fill="#8F00FF" stroke="#263238" stroke-miterlimit="10"/>
<path d="M112.659 461.123L104.493 453.293" stroke="#263238" stroke-linecap="round" stroke-linejoin="round"/>
<path d="M121.232 417.507L115.814 411.266" stroke="#263238" stroke-linecap="round" stroke-linejoin="round"/>
<path d="M117.543 414.039C117.777 412.857 117.755 411.639 117.479 410.467C117.203 409.294 116.679 408.194 115.942 407.241C114.422 405.165 105.421 398.947 103.762 402.218C101.941 405.78 110.478 415.28 117.543 414.039Z" fill="#8F00FF" stroke="#263238" stroke-miterlimit="10"/>
<path d="M117.543 414.039L109.388 406.22" stroke="#263238" stroke-linecap="round" stroke-linejoin="round"/>
<path d="M124.074 390.12L118.842 382" stroke="#263238" stroke-linecap="round" stroke-linejoin="round"/>
<path d="M120.64 384.772C120.874 383.59 120.852 382.372 120.576 381.2C120.3 380.027 119.776 378.927 119.039 377.974C117.508 375.898 108.518 369.68 106.859 372.952C104.98 376.513 113.518 386.06 120.64 384.772Z" fill="#8F00FF" stroke="#263238" stroke-miterlimit="10"/>
<path d="M120.582 384.772L112.416 376.954" stroke="#263238" stroke-linecap="round" stroke-linejoin="round"/>
<path d="M114.886 482.78L122.334 474.892" stroke="#263238" stroke-linecap="round" stroke-linejoin="round"/>
<path d="M120.072 477.259C120.088 476.053 120.362 474.864 120.874 473.772C121.386 472.68 122.125 471.71 123.041 470.925C124.955 469.22 135.036 464.974 135.987 468.524C137.031 472.375 126.718 479.973 120.072 477.259Z" fill="#8F00FF" stroke="#263238" stroke-miterlimit="10"/>
<path d="M120.072 477.259L130.233 470.96" stroke="#263238" stroke-linecap="round" stroke-linejoin="round"/>
<path d="M119.782 435.58L127.24 427.692" stroke="#263238" stroke-linecap="round" stroke-linejoin="round"/>
<path d="M124.967 430.058C124.983 428.852 125.256 427.663 125.768 426.571C126.28 425.479 127.019 424.509 127.936 423.725C129.85 422.008 139.931 417.762 140.894 421.312C141.926 425.175 131.614 432.761 124.967 430.058Z" fill="#8F00FF" stroke="#263238" stroke-miterlimit="10"/>
<path d="M124.967 430.058L135.128 423.748" stroke="#263238" stroke-linecap="round" stroke-linejoin="round"/>
<path d="M121.928 414.828L129.386 406.951" stroke="#263238" stroke-linecap="round" stroke-linejoin="round"/>
<path d="M127.124 409.306C127.138 408.101 127.409 406.913 127.922 405.822C128.434 404.731 129.175 403.763 130.094 402.984C132.008 401.267 142.077 397.022 143.04 400.571C144.084 404.434 133.771 412.02 127.124 409.306Z" fill="#8F00FF" stroke="#263238" stroke-miterlimit="10"/>
<path d="M127.124 409.306L137.286 403.007" stroke="#263238" stroke-linecap="round" stroke-linejoin="round"/>
<path d="M125.002 382.87L132.542 376.536" stroke="#263238" stroke-linecap="round" stroke-linejoin="round"/>
<path d="M130.28 378.902C130.292 377.696 130.563 376.505 131.076 375.413C131.588 374.32 132.329 373.35 133.249 372.569C135.163 370.852 145.244 366.606 146.195 370.156C147.239 374.019 136.88 381.64 130.28 378.902Z" fill="#8F00FF" stroke="#263238" stroke-miterlimit="10"/>
<path d="M130.28 378.902L140.441 372.592" stroke="#263238" stroke-miterlimit="10"/>
<path d="M126.718 364.89C126.732 363.685 127.003 362.496 127.516 361.406C128.028 360.315 128.769 359.347 129.688 358.568C131.602 356.851 141.671 352.605 142.634 356.155C143.678 360.018 133.4 367.604 126.718 364.89Z" fill="#8F00FF" stroke="#263238" stroke-miterlimit="10"/>
<path d="M126.718 364.89L136.868 358.591" stroke="#263238" stroke-linecap="round" stroke-linejoin="round"/>
<path d="M127.136 365.4C125.939 365.261 124.785 364.867 123.752 364.245C122.72 363.622 121.833 362.786 121.15 361.792C119.642 359.704 116.51 349.241 120.106 348.661C124.12 348 130.523 359.02 127.136 365.4Z" fill="#8F00FF" stroke="#263238" stroke-miterlimit="10"/>
<path d="M127.136 365.342L121.928 354.589" stroke="#263238" stroke-linecap="round" stroke-linejoin="round"/>
<path d="M107.648 470.658L101.477 462.411" stroke="#263238" stroke-linecap="round" stroke-linejoin="round"/>
<path d="M103.484 464.986C103.589 463.784 103.437 462.573 103.037 461.435C102.637 460.297 101.998 459.257 101.164 458.386C99.4352 456.483 89.8536 451.228 88.5312 454.65C87.116 458.386 96.5932 467.004 103.484 464.986Z" fill="#8F00FF" stroke="#263238" stroke-miterlimit="10"/>
<path d="M103.484 464.986L94.5516 458.049" stroke="#263238" stroke-linecap="round" stroke-linejoin="round"/>
<path d="M107.857 430.87L101.477 424.92" stroke="#263238" stroke-linecap="round" stroke-linejoin="round"/>
<path d="M103.484 427.506C103.589 426.304 103.437 425.094 103.037 423.955C102.637 422.817 101.998 421.777 101.164 420.906C99.4352 419.004 89.8536 413.737 88.5312 417.171C87.116 420.906 96.5932 429.513 103.484 427.506Z" fill="#8F00FF" stroke="#263238" stroke-miterlimit="10"/>
<path d="M103.484 427.506L94.5516 420.57" stroke="#263238" stroke-linecap="round" stroke-linejoin="round"/>
<path d="M108.077 389.528L101.477 380.921" stroke="#263238" stroke-linecap="round" stroke-linejoin="round"/>
<path d="M103.484 383.496C103.589 382.294 103.437 381.083 103.037 379.945C102.637 378.807 101.998 377.767 101.164 376.896C99.4352 374.993 89.8536 369.727 88.5312 373.16C87.116 376.896 96.5932 385.514 103.484 383.496Z" fill="#8F00FF" stroke="#263238" stroke-miterlimit="10"/>
<path d="M103.484 383.496L94.5516 376.559" stroke="#263238" stroke-linecap="round" stroke-linejoin="round"/>
<path d="M107.648 357.187L101.477 351.619" stroke="#263238" stroke-linecap="round" stroke-linejoin="round"/>
<path d="M103.484 354.206C103.589 353.004 103.437 351.793 103.037 350.655C102.637 349.517 101.998 348.477 101.164 347.606C99.4352 345.703 89.8536 340.437 88.5312 343.87C87.116 347.606 96.5932 356.213 103.484 354.206Z" fill="#8F00FF" stroke="#263238" stroke-miterlimit="10"/>
<path d="M103.484 354.206L94.5516 347.258" stroke="#263238" stroke-linecap="round" stroke-linejoin="round"/>
<path d="M107.996 327.874L101.593 323.176" stroke="#263238" stroke-linecap="round" stroke-linejoin="round"/>
<path d="M103.484 324.8C103.589 323.598 103.437 322.387 103.037 321.249C102.637 320.111 101.998 319.071 101.164 318.2C99.4352 316.297 89.8536 311.031 88.5312 314.464C87.116 318.176 96.5932 326.795 103.484 324.8Z" fill="#8F00FF" stroke="#263238" stroke-miterlimit="10"/>
<path d="M103.484 324.777L94.5516 317.84" stroke="#263238" stroke-linecap="round" stroke-linejoin="round"/>
<path d="M109.214 480.611L114.527 473.848" stroke="#263238" stroke-linecap="round" stroke-linejoin="round"/>
<path d="M112.52 476.435C112.409 475.228 112.559 474.01 112.959 472.866C113.359 471.721 114.001 470.675 114.84 469.8C116.568 467.898 126.162 462.631 127.472 466.065C128.888 469.8 119.41 478.442 112.52 476.435Z" fill="#8F00FF" stroke="#263238" stroke-miterlimit="10"/>
<path d="M112.52 476.435L121.974 469.116" stroke="#263238" stroke-linecap="round" stroke-linejoin="round"/>
<path d="M107.926 422.855L114.527 414.236" stroke="#263238" stroke-linecap="round" stroke-linejoin="round"/>
<path d="M112.52 416.823C112.414 415.621 112.566 414.41 112.966 413.272C113.367 412.133 114.005 411.094 114.84 410.222C116.568 408.32 126.162 403.054 127.472 406.487C128.888 410.222 119.41 418.83 112.52 416.823Z" fill="#8F00FF" stroke="#263238" stroke-miterlimit="10"/>
<path d="M112.52 416.823L121.974 409.503" stroke="#263238" stroke-linecap="round" stroke-linejoin="round"/>
<path d="M107.926 393.426L114.527 384.818" stroke="#263238" stroke-linecap="round" stroke-linejoin="round"/>
<path d="M112.52 387.44C112.414 386.238 112.566 385.027 112.966 383.889C113.367 382.751 114.005 381.711 114.84 380.84C116.568 378.937 126.162 373.682 127.472 377.104C128.888 380.793 119.41 389.412 112.52 387.44Z" fill="#8F00FF" stroke="#263238" stroke-miterlimit="10"/>
<path d="M112.52 387.394L121.974 380.086" stroke="#263238" stroke-linecap="round" stroke-linejoin="round"/>
<path d="M107.926 354.542L114.527 345.924" stroke="#263238" stroke-linecap="round" stroke-linejoin="round"/>
<path d="M112.52 348.51C112.415 347.307 112.567 346.094 112.967 344.954C113.367 343.814 114.006 342.772 114.84 341.898C116.568 340.008 126.162 334.741 127.472 338.175C128.888 341.898 119.41 350.517 112.52 348.51Z" fill="#8F00FF" stroke="#263238" stroke-miterlimit="10"/>
<path d="M112.52 348.51L121.974 341.191" stroke="#263238" stroke-linecap="round" stroke-linejoin="round"/>
<path d="M108.216 320.972L114.689 315.926" stroke="#263238" stroke-linecap="round" stroke-linejoin="round"/>
<path d="M112.52 317.933C112.414 316.731 112.566 315.52 112.966 314.382C113.367 313.243 114.005 312.204 114.84 311.332C116.568 309.43 126.162 304.164 127.472 307.597C128.888 311.332 119.41 319.94 112.52 317.933Z" fill="#8F00FF" stroke="#263238" stroke-miterlimit="10"/>
<path d="M112.52 317.933L121.974 310.613" stroke="#263238" stroke-linecap="round" stroke-linejoin="round"/>
<path d="M107.532 304.372C107.426 303.17 107.578 301.96 107.978 300.821C108.379 299.683 109.017 298.643 109.852 297.772C111.58 295.87 121.162 290.603 122.484 294.037C123.9 297.772 114.422 306.379 107.532 304.372Z" fill="#8F00FF" stroke="#263238" stroke-miterlimit="10"/>
<path d="M107.532 304.372L116.986 297.053" stroke="#263238" stroke-linecap="round" stroke-linejoin="round"/>
<path d="M107.996 304.778C106.79 304.762 105.602 304.488 104.512 303.974C103.421 303.459 102.453 302.717 101.674 301.797C99.9571 299.883 95.7347 289.803 99.2843 288.852C103.147 287.808 110.71 298.12 107.996 304.778Z" fill="#8F00FF" stroke="#263238" stroke-miterlimit="10"/>
<path d="M107.996 304.778L101.709 294.605" stroke="#263238" stroke-linecap="round" stroke-linejoin="round"/>
<path d="M116.128 552.74H94.9924L92.3592 499.392H118.761L116.128 552.74Z" fill="#263238" stroke="#263238" stroke-linecap="round" stroke-linejoin="round"/>
<path d="M325.763 338.766L323.733 527.15L304.941 526.64L292.424 370.04L287.344 372.07L277.008 417.461L250.606 527.15L233.856 525.619L238.925 472.816L253.97 333.709L255.177 322.515L324.232 323.524L325.032 331.528L325.763 338.766Z" fill="#263238" stroke="#263238" stroke-linecap="round" stroke-linejoin="round"/>
<path d="M325.032 331.528L253.97 333.709L255.177 322.515L324.232 323.524L325.032 331.528Z" fill="#737373" stroke="#263238" stroke-linecap="round" stroke-linejoin="round"/>
<path d="M261.8 334.822V325.647L266.382 325.925L266.649 334.556" fill="#263238"/>
<path d="M261.8 334.822V325.647L266.382 325.925L266.649 334.556" stroke="#263238" stroke-linecap="round" stroke-linejoin="round"/>
<path d="M310.915 334.022V324.846L315.497 325.113L315.775 333.744" fill="#263238"/>
<path d="M310.915 334.022V324.846L315.497 325.113L315.775 333.744" stroke="#263238" stroke-linecap="round" stroke-linejoin="round"/>
<path d="M297.958 326.726H285V332.932H297.958V326.726Z" fill="white" stroke="#263238" stroke-linecap="round" stroke-linejoin="round"/>
<path d="M353.382 266.44C348.325 262.16 339.683 254.481 336.168 249.644C332.108 244.064 326.517 230.608 323.478 229.088C320.438 227.569 290.22 222.476 290.22 222.476L266.603 226.293L239.691 235.689L219.136 277.008L204.624 284.56C205.801 288.267 207.467 291.801 209.577 295.069C212.872 300.011 221.525 306.808 224.82 307.017C228.114 307.226 234.506 298.978 234.506 298.978L241.094 289.095L248.356 278.876L251.917 312.898C251.917 312.898 249.887 323.06 251.917 325.589C252.413 326.296 253.055 326.889 253.799 327.327C254.544 327.765 255.373 328.039 256.232 328.129L296.09 326.865H323.512C324.266 326.865 327.062 323.814 327.317 321.274C327.572 318.733 323.002 308.328 323.002 308.328L324.266 278.62L342.455 285.754C345.935 287.541 352.234 290.557 354.74 290.557C358.289 290.557 362.697 288.863 364.02 283.782C365.342 278.702 365.4 268.18 365.4 268.18L353.382 266.44Z" fill="white" stroke="#263238" stroke-linecap="round" stroke-linejoin="round"/>
<path d="M341.04 266.429C341.04 266.429 338.778 277.136 341.249 282.089" stroke="#263238" stroke-linecap="round" stroke-linejoin="round"/>
<path d="M340.622 264.364C340.622 264.364 342.884 279.444 345.564 283.121" stroke="#263238" stroke-linecap="round" stroke-linejoin="round"/>
<path d="M325.914 253.008L324.232 278.586L330.333 249.145" stroke="#263238" stroke-linecap="round" stroke-linejoin="round"/>
<path d="M326.517 243.809L326.285 247.463" stroke="#263238" stroke-linecap="round" stroke-linejoin="round"/>
<path d="M230.179 276.938L234.297 289.71" stroke="#263238" stroke-linecap="round" stroke-linejoin="round"/>
<path d="M227.708 274.665L237.591 284.56" stroke="#263238" stroke-linecap="round" stroke-linejoin="round"/>
<path d="M240.375 260.432L238.415 255.919" stroke="#263238" stroke-linecap="round" stroke-linejoin="round"/>
<path d="M242.15 252.602L248.321 278.841L241.593 263.262" stroke="#263238" stroke-linecap="round" stroke-linejoin="round"/>
<path d="M240.062 243.762L241.025 247.857" stroke="#263238" stroke-linecap="round" stroke-linejoin="round"/>
<path d="M300.649 302.482L298.398 306.449L292.819 316.286L291.995 317.724L291.427 316.935L287.587 311.518L282.205 303.943L281.892 303.514L282.344 296.67L283.04 286.253L283.527 278.818L284.2 268.401L284.687 260.965L285.372 250.537L285.604 247.057L283.4 244.25L279.63 239.436L286.23 232.429L294.675 236.547L292.633 239.923L288.689 246.442L289.188 248.75L291.137 257.938L292.54 264.48L294.501 273.667L295.893 280.221L297.853 289.397L299.257 295.951L300.649 302.482Z" fill="#8F00FF" stroke="#263238" stroke-miterlimit="10"/>
<path d="M292.633 239.923L283.353 244.25L285.557 247.057L285.325 250.537L289.142 248.75L288.643 246.43L292.633 239.923ZM291.16 257.938L284.687 261L284.2 268.424L292.54 264.515L291.16 257.938ZM294.524 273.667L283.55 278.818L283.063 286.253L295.916 280.221L294.524 273.667ZM297.876 289.397L282.367 296.67L281.926 303.514L282.228 303.943L299.28 295.951L297.876 289.397ZM287.61 311.518L291.45 316.935L292.842 316.286L298.422 306.449L287.61 311.518Z" fill="#263238" stroke="#263238" stroke-linecap="round" stroke-linejoin="round"/>
<path d="M274.56 218.822L269.92 219.565L264.028 227.174L274.839 244.864L282.448 238.972L286.868 241.419L292.03 237.498L299.396 239.946C299.396 239.946 297.436 225.214 296.693 222.998C295.951 220.783 289.571 217.848 289.571 217.848L274.56 218.822Z" fill="white" stroke="#263238" stroke-linecap="round" stroke-linejoin="round"/>
<path d="M272.844 207.768L272.356 222.268L280.708 234.796L286.845 241.431L291.52 232.58L292.749 223.497L291.763 212.442L272.844 207.768Z" fill="white" stroke="#263238" stroke-linecap="round" stroke-linejoin="round"/>
<path d="M292.042 215.598L291.763 212.442L272.844 207.802L272.6 216.456C275.848 217.256 284.676 218.846 292.042 215.598Z" fill="#263238" stroke="#263238" stroke-linecap="round" stroke-linejoin="round"/>
<path d="M341.504 254.724L342.258 224.008C340.053 222.429 337.935 220.733 335.913 218.927C334.138 217.152 333.372 212.837 332.618 212.071C330.657 210.654 328.401 209.699 326.018 209.276C323.698 209.02 322.712 207.246 326.262 206.236C329.811 205.227 336.006 207.721 336.006 207.721L338.453 205.471C338.453 205.471 352.675 208.011 353.174 209.276C353.672 210.54 353.684 216.131 353.684 218.416C353.684 220.702 353.939 225.272 353.939 225.272L361.816 255.2C361.816 255.2 361.816 260.281 360.284 261.29C358.753 262.299 347.339 263.83 344.288 261.545C341.237 259.26 341.504 254.724 341.504 254.724Z" fill="white" stroke="#263238" stroke-linecap="round" stroke-linejoin="round"/>
<path d="M333.372 199.891C333.372 199.891 334.904 207.246 336.678 207.501C338.453 207.756 338.198 205.181 338.708 202.93C339.219 200.68 338.708 198.87 337.688 198.87C336.667 198.87 333.883 198.615 333.372 199.891Z" fill="white" stroke="#263238" stroke-linecap="round" stroke-linejoin="round"/>
<path d="M339.718 199.891C339.718 199.891 338.198 207.246 339.973 208.266C341.748 209.287 351.144 211.816 352.164 210.586C353.185 209.357 352.93 204.496 351.654 203.731C350.378 202.965 341.504 199.636 339.718 199.891Z" fill="white" stroke="#263238" stroke-linecap="round" stroke-linejoin="round"/>
<path d="M343.917 201.086L343.476 209.473" stroke="#263238" stroke-linecap="round" stroke-linejoin="round"/>
<path d="M348.638 202.652L348.197 210.354" stroke="#263238" stroke-linecap="round" stroke-linejoin="round"/>
<path d="M334.904 206.747C334.904 206.747 335.252 207.907 337.224 208.162C339.196 208.417 345.077 210.552 346.991 216.143" stroke="#263238" stroke-linecap="round" stroke-linejoin="round"/>
<path d="M341.504 254.724C341.504 254.724 338.198 266.916 339.718 269.201C341.237 271.486 352.164 276.556 357.5 276.556C362.836 276.556 367.94 271.73 368.161 269.7C368.381 267.67 361.816 255.2 361.816 255.2C361.357 256.505 360.493 257.628 359.348 258.405C358.204 259.182 356.841 259.571 355.459 259.515C346.156 259.55 341.504 254.724 341.504 254.724Z" fill="white" stroke="#263238" stroke-linecap="round" stroke-linejoin="round"/>
<path d="M205.656 268.482C205.656 268.482 201.747 270.547 201.538 271.788C201.33 273.029 200.715 283.945 201.747 286.868C202.78 289.791 212.048 291.821 218.428 291.404C224.808 290.986 231.617 281.312 231.826 279.456C232.035 277.6 230.794 273.064 229.97 270.593C229.146 268.122 225.434 265.849 223.996 265.849C222.558 265.849 205.656 268.482 205.656 268.482Z" fill="white" stroke="#263238" stroke-linecap="round" stroke-linejoin="round"/>
<path d="M225.968 268.633L223.996 235.48C226.201 233.901 228.319 232.205 230.341 230.399C232.116 228.624 232.882 224.309 233.647 223.544C235.609 222.129 237.865 221.177 240.248 220.76C242.568 220.504 243.542 218.718 239.992 217.709C236.443 216.7 230.248 219.194 230.248 219.194L227.801 216.943C227.801 216.943 213.591 219.484 213.08 220.76C212.57 222.036 212.57 227.615 212.57 229.889C212.57 232.162 212.315 236.744 212.315 236.744L204.543 271.22C204.543 271.22 204.543 276.3 206.074 277.31C207.605 278.319 220.122 277.739 223.172 275.454C226.223 273.168 225.968 268.633 225.968 268.633Z" fill="white" stroke="#263238" stroke-linecap="round" stroke-linejoin="round"/>
<path d="M232.882 211.398C232.882 211.398 231.362 218.753 229.576 219.008C227.789 219.263 228.056 216.688 227.546 214.438C227.035 212.187 227.546 210.378 228.566 210.378C229.587 210.378 232.371 210.122 232.882 211.398Z" fill="white" stroke="#263238" stroke-linecap="round" stroke-linejoin="round"/>
<path d="M226.536 211.398C226.536 211.398 228.056 218.753 226.281 219.774C224.506 220.794 215.11 223.323 214.09 222.094C213.069 220.864 213.336 216.004 214.6 215.238C215.864 214.472 224.762 211.12 226.536 211.398Z" fill="white" stroke="#263238" stroke-linecap="round" stroke-linejoin="round"/>
<path d="M222.349 212.593L222.778 220.98" stroke="#263238" stroke-linecap="round" stroke-linejoin="round"/>
<path d="M217.616 214.159L218.057 221.862" stroke="#263238" stroke-linecap="round" stroke-linejoin="round"/>
<path d="M231.362 218.254C231.362 218.254 231.002 219.414 229.042 219.669C227.082 219.924 221.189 222.07 219.275 227.662" stroke="#263238" stroke-linecap="round" stroke-linejoin="round"/>
<path d="M258.112 190.089C258.112 190.089 250.247 182.224 250.989 173.629C251.223 170.753 252.454 168.049 254.471 165.986C256.488 163.923 259.163 162.629 262.032 162.33C264.492 162.33 267.438 162.087 267.438 162.087C267.438 162.087 268.668 152.262 276.045 149.06C283.423 145.858 294.222 156.681 296.67 160.358C299.118 164.036 298.143 167.237 300.846 166.994C303.549 166.75 303.062 166.75 302.319 168.467C301.577 170.184 296.426 172.886 296.426 172.886C296.426 172.886 293.236 175.102 291.264 175.102C289.292 175.102 281.694 171.912 277.263 170.926C272.832 169.94 271.37 168.223 271.37 172.156C271.37 176.088 272.113 180.508 269.897 182.967C268.582 184.391 267.416 185.945 266.417 187.607C266.417 187.607 269.12 196.446 268.134 197.188C267.148 197.931 263.958 197.676 263.494 196.446C263.03 195.216 260.791 191.539 260.791 191.539L258.112 190.089Z" fill="#263238" stroke="#263238" stroke-linecap="round" stroke-linejoin="round"/>
<path d="M296.96 180.751C296.96 180.751 299.663 176.819 300.892 180.508C302.122 184.196 298.932 189.347 298.932 190.333C298.932 191.319 296.96 180.751 296.96 180.751Z" fill="white" stroke="#263238" stroke-linecap="round" stroke-linejoin="round"/>
<path d="M269.41 168.2C269.41 168.2 269.41 178.269 267.693 181.459C266.623 183.416 265.208 185.165 263.517 186.621C263.517 186.621 267.194 194.973 266.464 195.715C265.733 196.458 261.302 189.08 261.302 189.08C261.302 189.08 256.882 187.85 257.126 194.242C257.369 200.634 260.606 202.095 262.775 203.081C264.248 203.692 265.821 204.026 267.415 204.067C270.586 208.72 275.01 212.38 280.175 214.623C288.295 217.825 297.575 217.082 300.08 210.204C302.586 203.325 296.426 172.84 296.426 172.84C296.426 172.84 287.831 173.582 281.694 170.392C275.558 167.202 274.317 164.732 272.6 165.23C270.883 165.729 269.41 168.2 269.41 168.2Z" fill="white" stroke="#263238" stroke-linecap="round" stroke-linejoin="round"/>
<path d="M285.128 181.737C285.128 181.737 290.29 195.495 289.548 197.455C288.805 199.416 283.655 197.942 283.655 197.942" stroke="#263238" stroke-linecap="round" stroke-linejoin="round"/>
<path d="M275.79 199.914C276.923 201.454 278.356 202.749 280.003 203.72C281.649 204.691 283.476 205.318 285.372 205.564C292.007 206.538 295.197 195.982 295.197 195.982" stroke="#263238" stroke-linecap="round" stroke-linejoin="round"/>
<path d="M277.02 198.685L274.073 202.118" stroke="#263238" stroke-linecap="round" stroke-linejoin="round"/>
<path d="M275.546 193.766C279.48 193.766 282.669 190.578 282.669 186.644C282.669 182.71 279.48 179.522 275.546 179.522C271.613 179.522 268.424 182.71 268.424 186.644C268.424 190.578 271.613 193.766 275.546 193.766Z" stroke="#263238" stroke-linecap="round" stroke-linejoin="round"/>
<path d="M272.739 187.92C272.739 187.92 276.672 188.976 278.934 186.261" stroke="#263238" stroke-linecap="round" stroke-linejoin="round"/>
<path d="M288.596 183.071C288.596 183.071 293.236 184.428 295.997 181.25" stroke="#263238" stroke-linecap="round" stroke-linejoin="round"/>
<path d="M269.723 180.044C269.723 180.044 271.08 177.932 275.906 176.274L269.723 180.044Z" fill="white"/>
<path d="M269.723 180.044C269.723 180.044 271.08 177.932 275.906 176.274" stroke="#263238" stroke-linecap="round" stroke-linejoin="round"/>
<path d="M286.52 174.313C289.133 173.124 292.099 172.963 294.826 173.861" stroke="#263238" stroke-linecap="round" stroke-linejoin="round"/>
<path d="M292.494 188.86C296.428 188.86 299.616 185.671 299.616 181.737C299.616 177.804 296.428 174.615 292.494 174.615C288.56 174.615 285.372 177.804 285.372 181.737C285.372 185.671 288.56 188.86 292.494 188.86Z" stroke="#263238" stroke-linecap="round" stroke-linejoin="round"/>
<path d="M282.182 184.185L285.372 183.454" stroke="#263238" stroke-linecap="round" stroke-linejoin="round"/>
<path d="M268.424 188.361L261.789 190.576" stroke="#263238" stroke-linecap="round" stroke-linejoin="round"/>
<path d="M234.529 524.192L228.52 535.352L217.361 547.798C217.361 547.798 215.215 550.803 216.073 552.09C216.932 553.378 249.122 552.09 249.122 552.09L251.268 550.803L252.126 546.94L251.128 535.862L250.606 527.139L234.529 524.192Z" fill="white" stroke="#263238" stroke-linecap="round" stroke-linejoin="round"/>
<path d="M216.259 549.77C216.051 550.117 215.927 550.506 215.894 550.909C215.862 551.311 215.923 551.715 216.073 552.09C216.932 553.378 249.122 552.09 249.122 552.09L251.268 550.803L251.848 548.158L216.259 549.77Z" fill="white" stroke="#263238" stroke-linecap="round" stroke-linejoin="round"/>
<path d="M323.733 527.139L327.456 535.352L338.616 547.798C338.616 547.798 340.762 550.803 339.903 552.09C339.045 553.378 306.855 552.09 306.855 552.09L304.709 550.803L303.85 546.94L304.709 529.343L305.37 527.139H323.733Z" fill="white" stroke="#263238" stroke-linecap="round" stroke-linejoin="round"/>
<path d="M339.88 552.09C340.414 551.302 339.799 549.852 339.254 548.866L303.92 547.288L304.697 550.768L306.843 552.056C306.843 552.056 339.045 553.378 339.88 552.09Z" fill="white" stroke="#263238" stroke-linecap="round" stroke-linejoin="round"/>
</svg>
