<svg width="40" height="40" viewBox="0 0 40 40" fill="none" xmlns="http://www.w3.org/2000/svg">
<path d="M20 39.6976C30.8758 39.6976 39.6924 30.8787 39.6924 20C39.6924 9.12138 30.8758 0.30249 20 0.30249C9.12428 0.30249 0.307739 9.12138 0.307739 20C0.307739 30.8787 9.12428 39.6976 20 39.6976Z" fill="#8F00FF"/>
<path d="M20.045 8.43701C13.6392 8.43701 8.44592 13.6299 8.44592 20.0361C8.44592 25.4862 12.2062 30.0558 17.273 31.2988C17.2708 29.865 17.2668 27.1373 17.2656 27.0376C17.2447 27.0241 15.0668 28.2998 13.9558 26.0696C13.8216 25.7939 13.5521 24.8724 12.8767 24.3564C12.8527 24.3364 12.3539 24.0813 12.3081 23.8315C12.3028 23.7967 12.3404 23.7235 12.3893 23.7053C12.4404 23.6862 13.2613 23.3493 14.1764 24.5099C14.4521 24.8985 15.0748 26.389 17.2545 25.4678C17.3124 25.2382 17.3548 24.8635 17.8259 24.4373C14.5801 24.0499 13.3939 22.9385 12.9342 20.1635C12.6468 18.2715 13.1988 16.6989 14.0284 15.9229C13.9028 15.7576 13.4887 14.3752 14.1324 12.913C14.8299 12.7733 16.109 13.2742 17.2333 14.0844C18.8188 13.5112 21.7964 13.6598 22.8616 14.0844C23.3681 13.6653 25.1761 12.6872 25.9518 12.9152C26.1798 13.4958 26.509 14.9022 26.0542 15.9275C27.0647 16.9675 27.3493 18.3105 27.1672 19.9601C26.9438 22.4598 25.6789 24.1428 22.2401 24.4373C22.813 24.8416 23.3392 25.3967 23.3392 26.3379C23.3392 27.3493 23.3385 29.7712 23.3379 31.1576C28.1395 29.7382 31.6444 25.2979 31.6444 20.0358C31.6444 13.6299 26.4512 8.43701 20.045 8.43701Z" fill="white"/>
</svg>
