<svg width="40" height="40" viewBox="0 0 40 40" fill="none" xmlns="http://www.w3.org/2000/svg">
<path d="M20 39.6975C30.8758 39.6975 39.6924 30.8787 39.6924 20C39.6924 9.12137 30.8758 0.30249 20 0.30249C9.12428 0.30249 0.307739 9.12137 0.307739 20C0.307739 30.8787 9.12428 39.6975 20 39.6975Z" fill="#8F00FF"/>
<path d="M12.2492 27.1575H15.8142V14.6791H12.2492V27.1575ZM25.8594 15.3905C24.5323 14.6453 22.5736 14.5828 21.1622 15.2265V14.6794H17.5973V27.1578H21.1622V19.1766L22.6314 18.4696C22.992 18.2963 23.7812 18.3117 24.1157 18.5C24.3677 18.6416 24.7271 19.2243 24.7271 19.5819V27.1575H28.2926V19.5819C28.2929 17.9431 27.2692 16.1797 25.8594 15.3905ZM14.032 8.88562C12.8 8.88562 11.8037 9.88315 11.8037 11.1142C11.8037 12.345 12.8 13.3422 14.032 13.3422C15.2646 13.3422 16.2603 12.345 16.2603 11.1142C16.2603 9.88315 15.2643 8.88562 14.032 8.88562Z" fill="white"/>
</svg>
